0
SECTION
2
HEADER
9
$INSUNITS
70
4
9
$ACADVER
1
AC1014
9
$HANDSEED
5
FFFF
0
ENDSEC
0
SECTION
2
TABLES
0
TABLE
2
VPORT
5
8
100
AcDbSymbolTable
0
ENDTAB
0
TABLE
2
LTYPE
5
5
100
AcDbSymbolTable
0
LTYPE
5
14
100
AcDbSymbolTableRecord
100
AcDbLinetypeTableRecord
2
BYBLOCK
70
0
0
LTYPE
5
15
100
AcDbSymbolTableRecord
100
AcDbLinetypeTableRecord
2
BYLAYER
70
0
0
ENDTAB
0
TABLE
2
LAYER
5
2
100
AcDbSymbolTable
70
2
0
LAYER
5
50
100
AcDbSymbolTableRecord
100
AcDbLayerTableRecord
2
0
70
0
6
CONTINUOUS
0
ENDTAB
0
TABLE
2
STYLE
5
3
100
AcDbSymbolTable
70
1
0
STYLE
5
11
100
AcDbSymbolTableRecord
100
AcDbTextStyleTableRecord
2
STANDARD
70
0
0
ENDTAB
0
TABLE
2
VIEW
5
6
100
AcDbSymbolTable
70
0
0
ENDTAB
0
TABLE
2
UCS
5
7
100
AcDbSymbolTable
70
0
0
ENDTAB
0
TABLE
2
APPID
5
9
100
AcDbSymbolTable
70
2
0
APPID
5
12
100
AcDbSymbolTableRecord
100
AcDbRegAppTableRecord
2
ACAD
70
0
0
ENDTAB
0
TABLE
2
DIMSTYLE
5
A
100
AcDbSymbolTable
70
1
0
ENDTAB
0
TABLE
2
BLOCK_RECORD
5
1
100
AcDbSymbolTable
70
1
0
BLOCK_RECORD
5
1F
100
AcDbSymbolTableRecord
100
AcDbBlockTableRecord
2
*MODEL_SPACE
0
BLOCK_RECORD
5
1B
100
AcDbSymbolTableRecord
100
AcDbBlockTableRecord
2
*PAPER_SPACE
0
ENDTAB
0
ENDSEC
0
SECTION
2
BLOCKS
0
BLOCK
5
20
100
AcDbEntity
100
AcDbBlockBegin
2
*MODEL_SPACE
0
ENDBLK
5
21
100
AcDbEntity
100
AcDbBlockEnd
0
BLOCK
5
1C
100
AcDbEntity
100
AcDbBlockBegin
2
*PAPER_SPACE
0
ENDBLK
5
1D
100
AcDbEntity
100
AcDbBlockEnd
0
ENDSEC
0
SECTION
2
ENTITIES
0
LINE
5
100
100
AcDbEntity
8
0
100
AcDbLine
10
0.12700000000006639
20
-42.544999999999959
30
0
11
103.76345395959711
21
-42.544999999999959
31
0
0
LINE
5
101
100
AcDbEntity
8
0
100
AcDbLine
10
0.12704080012535535
20
-12.064870224587768
30
0
11
103.763494759351
21
-12.065147676182422
31
0
0
LINE
5
102
100
AcDbEntity
8
0
100
AcDbLine
10
103.76345395959711
20
-42.544999999999959
30
0
11
103.763494759351
21
-12.065147676182422
31
0
0
LINE
5
103
100
AcDbEntity
8
0
100
AcDbLine
10
0.12700000000006639
20
-42.544999999999959
30
0
11
0.12704080012535535
21
-12.064870224587768
31
0
0
CIRCLE
5
104
100
AcDbEntity
8
0
100
AcDbCircle
10
3.4312860000000001
20
-39.450010000000034
30
0
40
1.7500000000000027
210
0
220
0
230
1
0
CIRCLE
5
105
100
AcDbEntity
8
0
100
AcDbCircle
10
3.4312860000000001
20
-15.329915999999912
30
0
40
1.7499999999999996
210
0
220
0
230
1
0
CIRCLE
5
106
100
AcDbEntity
8
0
100
AcDbCircle
10
51.970686000000114
20
-15.329915999999912
30
0
40
1.7499999999999971
210
0
220
0
230
1
0
CIRCLE
5
107
100
AcDbEntity
8
0
100
AcDbCircle
10
51.970178000000033
20
-39.450010000000034
30
0
40
1.7500000000000004
210
0
220
0
230
1
0
CIRCLE
5
108
100
AcDbEntity
8
0
100
AcDbCircle
10
100.45852400000015
20
-15.329915999999912
30
0
40
1.7499999999999956
210
0
220
0
230
1
0
CIRCLE
5
109
100
AcDbEntity
8
0
100
AcDbCircle
10
100.45852400000015
20
-39.450010000000034
30
0
40
1.7499999999999971
210
0
220
0
230
1
0
CIRCLE
5
110
100
AcDbEntity
8
0
100
AcDbCircle
10
8.5089821112517257
20
-20.574017888748244
30
0
40
1.5000000000000013
210
0
220
0
230
1
0
CIRCLE
5
111
100
AcDbEntity
8
0
100
AcDbCircle
10
8.508995296029525
20
-23.939423799993055
30
0
40
1.4999999999999991
210
0
220
0
230
1
0
CIRCLE
5
112
100
AcDbEntity
8
0
100
AcDbCircle
10
8.5089821112517257
20
-27.30501788874836
30
0
40
1.5000000000000013
210
0
220
0
230
1
0
CIRCLE
5
113
100
AcDbEntity
8
0
100
AcDbCircle
10
8.5089821112517257
20
-30.670009888748272
30
0
40
1.5000000000000013
210
0
220
0
230
1
0
CIRCLE
5
114
100
AcDbEntity
8
0
100
AcDbCircle
10
8.508995296029525
20
-34.035999999993237
30
0
40
1.4999999999999996
210
0
220
0
230
1
0
CIRCLE
5
115
100
AcDbEntity
8
0
100
AcDbCircle
10
11.850089760487281
20
-23.939423799993055
30
0
40
1.4999999999999991
210
0
220
0
230
1
0
CIRCLE
5
116
100
AcDbEntity
8
0
100
AcDbCircle
10
11.850076575709483
20
-20.574017888748244
30
0
40
1.5000000000000013
210
0
220
0
230
1
0
CIRCLE
5
117
100
AcDbEntity
8
0
100
AcDbCircle
10
11.850076575709483
20
-30.670009888748272
30
0
40
1.5000000000000013
210
0
220
0
230
1
0
CIRCLE
5
118
100
AcDbEntity
8
0
100
AcDbCircle
10
11.850076575709483
20
-27.30501788874836
30
0
40
1.5000000000000013
210
0
220
0
230
1
0
CIRCLE
5
119
100
AcDbEntity
8
0
100
AcDbCircle
10
11.850089760487281
20
-34.035999999993237
30
0
40
1.4999999999999996
210
0
220
0
230
1
0
CIRCLE
5
120
100
AcDbEntity
8
0
100
AcDbCircle
10
15.191184224945038
20
-23.939423799993055
30
0
40
1.4999999999999991
210
0
220
0
230
1
0
CIRCLE
5
121
100
AcDbEntity
8
0
100
AcDbCircle
10
15.191171040167237
20
-20.574017888748244
30
0
40
1.5000000000000013
210
0
220
0
230
1
0
CIRCLE
5
122
100
AcDbEntity
8
0
100
AcDbCircle
10
15.191171040167237
20
-30.670009888748272
30
0
40
1.5000000000000013
210
0
220
0
230
1
0
CIRCLE
5
123
100
AcDbEntity
8
0
100
AcDbCircle
10
15.191171040167237
20
-27.30501788874836
30
0
40
1.5000000000000013
210
0
220
0
230
1
0
CIRCLE
5
124
100
AcDbEntity
8
0
100
AcDbCircle
10
15.191184224945038
20
-34.035999999993237
30
0
40
1.4999999999999996
210
0
220
0
230
1
0
CIRCLE
5
125
100
AcDbEntity
8
0
100
AcDbCircle
10
18.532278689402794
20
-23.939423799993055
30
0
40
1.4999999999999991
210
0
220
0
230
1
0
CIRCLE
5
126
100
AcDbEntity
8
0
100
AcDbCircle
10
18.532265504624995
20
-20.574017888748244
30
0
40
1.5000000000000013
210
0
220
0
230
1
0
CIRCLE
5
127
100
AcDbEntity
8
0
100
AcDbCircle
10
18.532265504624995
20
-30.670009888748272
30
0
40
1.5000000000000013
210
0
220
0
230
1
0
CIRCLE
5
128
100
AcDbEntity
8
0
100
AcDbCircle
10
18.532265504624995
20
-27.30501788874836
30
0
40
1.5000000000000013
210
0
220
0
230
1
0
CIRCLE
5
129
100
AcDbEntity
8
0
100
AcDbCircle
10
18.532278689402794
20
-34.035999999993237
30
0
40
1.4999999999999996
210
0
220
0
230
1
0
CIRCLE
5
130
100
AcDbEntity
8
0
100
AcDbCircle
10
21.873373153860548
20
-23.939423799993055
30
0
40
1.4999999999999991
210
0
220
0
230
1
0
CIRCLE
5
131
100
AcDbEntity
8
0
100
AcDbCircle
10
21.873359969082749
20
-20.574017888748244
30
0
40
1.5000000000000013
210
0
220
0
230
1
0
CIRCLE
5
132
100
AcDbEntity
8
0
100
AcDbCircle
10
21.873359969082749
20
-30.670009888748272
30
0
40
1.5000000000000013
210
0
220
0
230
1
0
CIRCLE
5
133
100
AcDbEntity
8
0
100
AcDbCircle
10
21.873359969082749
20
-27.30501788874836
30
0
40
1.5000000000000013
210
0
220
0
230
1
0
CIRCLE
5
134
100
AcDbEntity
8
0
100
AcDbCircle
10
21.873373153860548
20
-34.035999999993237
30
0
40
1.4999999999999996
210
0
220
0
230
1
0
CIRCLE
5
135
100
AcDbEntity
8
0
100
AcDbCircle
10
25.214467618318306
20
-23.939423799993055
30
0
40
1.4999999999999991
210
0
220
0
230
1
0
CIRCLE
5
136
100
AcDbEntity
8
0
100
AcDbCircle
10
25.214454433540507
20
-20.574017888748244
30
0
40
1.5000000000000013
210
0
220
0
230
1
0
CIRCLE
5
137
100
AcDbEntity
8
0
100
AcDbCircle
10
25.214454433540507
20
-30.670009888748272
30
0
40
1.5000000000000013
210
0
220
0
230
1
0
CIRCLE
5
138
100
AcDbEntity
8
0
100
AcDbCircle
10
25.214454433540507
20
-27.30501788874836
30
0
40
1.5000000000000013
210
0
220
0
230
1
0
CIRCLE
5
139
100
AcDbEntity
8
0
100
AcDbCircle
10
25.214467618318306
20
-34.035999999993237
30
0
40
1.4999999999999996
210
0
220
0
230
1
0
CIRCLE
5
140
100
AcDbEntity
8
0
100
AcDbCircle
10
28.555562082776063
20
-23.939423799993055
30
0
40
1.4999999999999991
210
0
220
0
230
1
0
CIRCLE
5
141
100
AcDbEntity
8
0
100
AcDbCircle
10
28.555548897998264
20
-20.574017888748244
30
0
40
1.5000000000000013
210
0
220
0
230
1
0
CIRCLE
5
142
100
AcDbEntity
8
0
100
AcDbCircle
10
28.555548897998264
20
-30.670009888748272
30
0
40
1.5000000000000013
210
0
220
0
230
1
0
CIRCLE
5
143
100
AcDbEntity
8
0
100
AcDbCircle
10
28.555548897998264
20
-27.30501788874836
30
0
40
1.5000000000000013
210
0
220
0
230
1
0
CIRCLE
5
144
100
AcDbEntity
8
0
100
AcDbCircle
10
28.555562082776063
20
-34.035999999993237
30
0
40
1.4999999999999996
210
0
220
0
230
1
0
CIRCLE
5
145
100
AcDbEntity
8
0
100
AcDbCircle
10
31.896656547233817
20
-23.939423799993055
30
0
40
1.4999999999999991
210
0
220
0
230
1
0
CIRCLE
5
146
100
AcDbEntity
8
0
100
AcDbCircle
10
31.896643362456018
20
-20.574017888748244
30
0
40
1.5000000000000013
210
0
220
0
230
1
0
CIRCLE
5
147
100
AcDbEntity
8
0
100
AcDbCircle
10
31.896643362456018
20
-30.670009888748272
30
0
40
1.5000000000000013
210
0
220
0
230
1
0
CIRCLE
5
148
100
AcDbEntity
8
0
100
AcDbCircle
10
31.896643362456018
20
-27.30501788874836
30
0
40
1.5000000000000013
210
0
220
0
230
1
0
CIRCLE
5
149
100
AcDbEntity
8
0
100
AcDbCircle
10
31.896656547233817
20
-34.035999999993237
30
0
40
1.4999999999999996
210
0
220
0
230
1
0
CIRCLE
5
150
100
AcDbEntity
8
0
100
AcDbCircle
10
35.237751011691579
20
-23.939423799993055
30
0
40
1.4999999999999991
210
0
220
0
230
1
0
CIRCLE
5
151
100
AcDbEntity
8
0
100
AcDbCircle
10
35.237737826913779
20
-20.574017888748244
30
0
40
1.5000000000000013
210
0
220
0
230
1
0
CIRCLE
5
152
100
AcDbEntity
8
0
100
AcDbCircle
10
35.237737826913779
20
-30.670009888748272
30
0
40
1.5000000000000013
210
0
220
0
230
1
0
CIRCLE
5
153
100
AcDbEntity
8
0
100
AcDbCircle
10
35.237737826913779
20
-27.30501788874836
30
0
40
1.5000000000000013
210
0
220
0
230
1
0
CIRCLE
5
154
100
AcDbEntity
8
0
100
AcDbCircle
10
35.237751011691579
20
-34.035999999993237
30
0
40
1.4999999999999996
210
0
220
0
230
1
0
CIRCLE
5
155
100
AcDbEntity
8
0
100
AcDbCircle
10
38.578845476149333
20
-23.939423799993055
30
0
40
1.4999999999999991
210
0
220
0
230
1
0
CIRCLE
5
156
100
AcDbEntity
8
0
100
AcDbCircle
10
38.578832291371526
20
-20.574017888748244
30
0
40
1.5000000000000013
210
0
220
0
230
1
0
CIRCLE
5
157
100
AcDbEntity
8
0
100
AcDbCircle
10
38.578832291371526
20
-30.670009888748272
30
0
40
1.5000000000000013
210
0
220
0
230
1
0
CIRCLE
5
158
100
AcDbEntity
8
0
100
AcDbCircle
10
38.578832291371526
20
-27.30501788874836
30
0
40
1.5000000000000013
210
0
220
0
230
1
0
CIRCLE
5
159
100
AcDbEntity
8
0
100
AcDbCircle
10
38.578845476149333
20
-34.035999999993237
30
0
40
1.4999999999999996
210
0
220
0
230
1
0
CIRCLE
5
160
100
AcDbEntity
8
0
100
AcDbCircle
10
41.919939940607087
20
-23.939423799993055
30
0
40
1.4999999999999991
210
0
220
0
230
1
0
CIRCLE
5
161
100
AcDbEntity
8
0
100
AcDbCircle
10
41.919926755829295
20
-20.574017888748244
30
0
40
1.5000000000000013
210
0
220
0
230
1
0
CIRCLE
5
162
100
AcDbEntity
8
0
100
AcDbCircle
10
41.919926755829295
20
-30.670009888748272
30
0
40
1.5000000000000013
210
0
220
0
230
1
0
CIRCLE
5
163
100
AcDbEntity
8
0
100
AcDbCircle
10
41.919926755829295
20
-27.30501788874836
30
0
40
1.5000000000000013
210
0
220
0
230
1
0
CIRCLE
5
164
100
AcDbEntity
8
0
100
AcDbCircle
10
41.919939940607087
20
-34.035999999993237
30
0
40
1.4999999999999996
210
0
220
0
230
1
0
CIRCLE
5
165
100
AcDbEntity
8
0
100
AcDbCircle
10
45.261034405064848
20
-23.939423799993055
30
0
40
1.4999999999999991
210
0
220
0
230
1
0
CIRCLE
5
166
100
AcDbEntity
8
0
100
AcDbCircle
10
45.261021220287041
20
-20.574017888748244
30
0
40
1.5000000000000013
210
0
220
0
230
1
0
CIRCLE
5
167
100
AcDbEntity
8
0
100
AcDbCircle
10
45.261021220287041
20
-30.670009888748272
30
0
40
1.5000000000000013
210
0
220
0
230
1
0
CIRCLE
5
168
100
AcDbEntity
8
0
100
AcDbCircle
10
45.261021220287041
20
-27.30501788874836
30
0
40
1.5000000000000013
210
0
220
0
230
1
0
CIRCLE
5
169
100
AcDbEntity
8
0
100
AcDbCircle
10
45.261034405064848
20
-34.035999999993237
30
0
40
1.4999999999999996
210
0
220
0
230
1
0
CIRCLE
5
170
100
AcDbEntity
8
0
100
AcDbCircle
10
48.602128869522602
20
-23.939423799993055
30
0
40
1.4999999999999991
210
0
220
0
230
1
0
CIRCLE
5
171
100
AcDbEntity
8
0
100
AcDbCircle
10
48.602115684744795
20
-20.574017888748244
30
0
40
1.5000000000000013
210
0
220
0
230
1
0
CIRCLE
5
172
100
AcDbEntity
8
0
100
AcDbCircle
10
48.602115684744795
20
-30.670009888748272
30
0
40
1.5000000000000013
210
0
220
0
230
1
0
CIRCLE
5
173
100
AcDbEntity
8
0
100
AcDbCircle
10
48.602115684744795
20
-27.30501788874836
30
0
40
1.5000000000000013
210
0
220
0
230
1
0
CIRCLE
5
174
100
AcDbEntity
8
0
100
AcDbCircle
10
48.602128869522602
20
-34.035999999993237
30
0
40
1.4999999999999996
210
0
220
0
230
1
0
CIRCLE
5
175
100
AcDbEntity
8
0
100
AcDbCircle
10
51.943223333980356
20
-23.939423799993055
30
0
40
1.4999999999999991
210
0
220
0
230
1
0
CIRCLE
5
176
100
AcDbEntity
8
0
100
AcDbCircle
10
51.943210149202557
20
-20.574017888748244
30
0
40
1.5000000000000013
210
0
220
0
230
1
0
CIRCLE
5
177
100
AcDbEntity
8
0
100
AcDbCircle
10
51.943210149202557
20
-30.670009888748272
30
0
40
1.5000000000000013
210
0
220
0
230
1
0
CIRCLE
5
178
100
AcDbEntity
8
0
100
AcDbCircle
10
51.943210149202557
20
-27.30501788874836
30
0
40
1.5000000000000013
210
0
220
0
230
1
0
CIRCLE
5
179
100
AcDbEntity
8
0
100
AcDbCircle
10
51.943223333980356
20
-34.035999999993237
30
0
40
1.4999999999999996
210
0
220
0
230
1
0
CIRCLE
5
180
100
AcDbEntity
8
0
100
AcDbCircle
10
55.28431779843811
20
-23.939423799993055
30
0
40
1.4999999999999991
210
0
220
0
230
1
0
CIRCLE
5
181
100
AcDbEntity
8
0
100
AcDbCircle
10
55.284304613660311
20
-20.574017888748244
30
0
40
1.5000000000000013
210
0
220
0
230
1
0
CIRCLE
5
182
100
AcDbEntity
8
0
100
AcDbCircle
10
55.284304613660311
20
-30.670009888748272
30
0
40
1.5000000000000013
210
0
220
0
230
1
0
CIRCLE
5
183
100
AcDbEntity
8
0
100
AcDbCircle
10
55.284304613660311
20
-27.30501788874836
30
0
40
1.5000000000000013
210
0
220
0
230
1
0
CIRCLE
5
184
100
AcDbEntity
8
0
100
AcDbCircle
10
55.28431779843811
20
-34.035999999993237
30
0
40
1.4999999999999996
210
0
220
0
230
1
0
CIRCLE
5
185
100
AcDbEntity
8
0
100
AcDbCircle
10
58.625412262895871
20
-23.939423799993055
30
0
40
1.4999999999999991
210
0
220
0
230
1
0
CIRCLE
5
186
100
AcDbEntity
8
0
100
AcDbCircle
10
58.625399078118072
20
-20.574017888748244
30
0
40
1.5000000000000013
210
0
220
0
230
1
0
CIRCLE
5
187
100
AcDbEntity
8
0
100
AcDbCircle
10
58.625399078118072
20
-30.670009888748272
30
0
40
1.5000000000000013
210
0
220
0
230
1
0
CIRCLE
5
188
100
AcDbEntity
8
0
100
AcDbCircle
10
58.625399078118072
20
-27.30501788874836
30
0
40
1.5000000000000013
210
0
220
0
230
1
0
CIRCLE
5
189
100
AcDbEntity
8
0
100
AcDbCircle
10
58.625412262895871
20
-34.035999999993237
30
0
40
1.4999999999999996
210
0
220
0
230
1
0
CIRCLE
5
190
100
AcDbEntity
8
0
100
AcDbCircle
10
61.966506727353625
20
-23.939423799993055
30
0
40
1.4999999999999991
210
0
220
0
230
1
0
CIRCLE
5
191
100
AcDbEntity
8
0
100
AcDbCircle
10
61.966493542575819
20
-20.574017888748244
30
0
40
1.5000000000000013
210
0
220
0
230
1
0
CIRCLE
5
192
100
AcDbEntity
8
0
100
AcDbCircle
10
61.966493542575819
20
-30.670009888748272
30
0
40
1.5000000000000013
210
0
220
0
230
1
0
CIRCLE
5
193
100
AcDbEntity
8
0
100
AcDbCircle
10
61.966493542575819
20
-27.30501788874836
30
0
40
1.5000000000000013
210
0
220
0
230
1
0
CIRCLE
5
194
100
AcDbEntity
8
0
100
AcDbCircle
10
61.966506727353625
20
-34.035999999993237
30
0
40
1.4999999999999996
210
0
220
0
230
1
0
CIRCLE
5
195
100
AcDbEntity
8
0
100
AcDbCircle
10
65.307601191811372
20
-23.939423799993055
30
0
40
1.4999999999999991
210
0
220
0
230
1
0
CIRCLE
5
196
100
AcDbEntity
8
0
100
AcDbCircle
10
65.307588007033573
20
-20.574017888748244
30
0
40
1.5000000000000013
210
0
220
0
230
1
0
CIRCLE
5
197
100
AcDbEntity
8
0
100
AcDbCircle
10
65.307588007033573
20
-30.670009888748272
30
0
40
1.5000000000000013
210
0
220
0
230
1
0
CIRCLE
5
198
100
AcDbEntity
8
0
100
AcDbCircle
10
65.307588007033573
20
-27.30501788874836
30
0
40
1.5000000000000013
210
0
220
0
230
1
0
CIRCLE
5
199
100
AcDbEntity
8
0
100
AcDbCircle
10
65.307601191811372
20
-34.035999999993237
30
0
40
1.4999999999999996
210
0
220
0
230
1
0
CIRCLE
5
200
100
AcDbEntity
8
0
100
AcDbCircle
10
68.64869565626914
20
-23.939423799993055
30
0
40
1.4999999999999991
210
0
220
0
230
1
0
CIRCLE
5
201
100
AcDbEntity
8
0
100
AcDbCircle
10
68.648682471491341
20
-20.574017888748244
30
0
40
1.5000000000000013
210
0
220
0
230
1
0
CIRCLE
5
202
100
AcDbEntity
8
0
100
AcDbCircle
10
68.648682471491341
20
-30.670009888748272
30
0
40
1.5000000000000013
210
0
220
0
230
1
0
CIRCLE
5
203
100
AcDbEntity
8
0
100
AcDbCircle
10
68.648682471491341
20
-27.30501788874836
30
0
40
1.5000000000000013
210
0
220
0
230
1
0
CIRCLE
5
204
100
AcDbEntity
8
0
100
AcDbCircle
10
68.64869565626914
20
-34.035999999993237
30
0
40
1.4999999999999996
210
0
220
0
230
1
0
CIRCLE
5
205
100
AcDbEntity
8
0
100
AcDbCircle
10
71.989790120726894
20
-23.939423799993055
30
0
40
1.4999999999999991
210
0
220
0
230
1
0
CIRCLE
5
206
100
AcDbEntity
8
0
100
AcDbCircle
10
71.989776935949095
20
-20.574017888748244
30
0
40
1.5000000000000013
210
0
220
0
230
1
0
CIRCLE
5
207
100
AcDbEntity
8
0
100
AcDbCircle
10
71.989776935949095
20
-30.670009888748272
30
0
40
1.5000000000000013
210
0
220
0
230
1
0
CIRCLE
5
208
100
AcDbEntity
8
0
100
AcDbCircle
10
71.989776935949095
20
-27.30501788874836
30
0
40
1.5000000000000013
210
0
220
0
230
1
0
CIRCLE
5
209
100
AcDbEntity
8
0
100
AcDbCircle
10
71.989790120726894
20
-34.035999999993237
30
0
40
1.4999999999999996
210
0
220
0
230
1
0
CIRCLE
5
210
100
AcDbEntity
8
0
100
AcDbCircle
10
75.330884585184648
20
-23.939423799993055
30
0
40
1.4999999999999991
210
0
220
0
230
1
0
CIRCLE
5
211
100
AcDbEntity
8
0
100
AcDbCircle
10
75.330871400406849
20
-20.574017888748244
30
0
40
1.5000000000000013
210
0
220
0
230
1
0
CIRCLE
5
212
100
AcDbEntity
8
0
100
AcDbCircle
10
75.330871400406849
20
-30.670009888748272
30
0
40
1.5000000000000013
210
0
220
0
230
1
0
CIRCLE
5
213
100
AcDbEntity
8
0
100
AcDbCircle
10
75.330871400406849
20
-27.30501788874836
30
0
40
1.5000000000000013
210
0
220
0
230
1
0
CIRCLE
5
214
100
AcDbEntity
8
0
100
AcDbCircle
10
75.330884585184648
20
-34.035999999993237
30
0
40
1.4999999999999996
210
0
220
0
230
1
0
CIRCLE
5
215
100
AcDbEntity
8
0
100
AcDbCircle
10
78.671979049642403
20
-23.939423799993055
30
0
40
1.4999999999999991
210
0
220
0
230
1
0
CIRCLE
5
216
100
AcDbEntity
8
0
100
AcDbCircle
10
78.671965864864603
20
-20.574017888748244
30
0
40
1.5000000000000013
210
0
220
0
230
1
0
CIRCLE
5
217
100
AcDbEntity
8
0
100
AcDbCircle
10
78.671965864864603
20
-30.670009888748272
30
0
40
1.5000000000000013
210
0
220
0
230
1
0
CIRCLE
5
218
100
AcDbEntity
8
0
100
AcDbCircle
10
78.671965864864603
20
-27.30501788874836
30
0
40
1.5000000000000013
210
0
220
0
230
1
0
CIRCLE
5
219
100
AcDbEntity
8
0
100
AcDbCircle
10
78.671979049642403
20
-34.035999999993237
30
0
40
1.4999999999999996
210
0
220
0
230
1
0
CIRCLE
5
220
100
AcDbEntity
8
0
100
AcDbCircle
10
82.013073514100157
20
-23.939423799993055
30
0
40
1.4999999999999991
210
0
220
0
230
1
0
CIRCLE
5
221
100
AcDbEntity
8
0
100
AcDbCircle
10
82.013060329322371
20
-20.574017888748244
30
0
40
1.5000000000000013
210
0
220
0
230
1
0
CIRCLE
5
222
100
AcDbEntity
8
0
100
AcDbCircle
10
82.013060329322371
20
-30.670009888748272
30
0
40
1.5000000000000013
210
0
220
0
230
1
0
CIRCLE
5
223
100
AcDbEntity
8
0
100
AcDbCircle
10
82.013060329322371
20
-27.30501788874836
30
0
40
1.5000000000000013
210
0
220
0
230
1
0
CIRCLE
5
224
100
AcDbEntity
8
0
100
AcDbCircle
10
82.013073514100157
20
-34.035999999993237
30
0
40
1.4999999999999996
210
0
220
0
230
1
0
CIRCLE
5
225
100
AcDbEntity
8
0
100
AcDbCircle
10
85.354167978557911
20
-23.939423799993055
30
0
40
1.4999999999999991
210
0
220
0
230
1
0
CIRCLE
5
226
100
AcDbEntity
8
0
100
AcDbCircle
10
85.354154793780111
20
-20.574017888748244
30
0
40
1.5000000000000013
210
0
220
0
230
1
0
CIRCLE
5
227
100
AcDbEntity
8
0
100
AcDbCircle
10
85.354154793780111
20
-30.670009888748272
30
0
40
1.5000000000000013
210
0
220
0
230
1
0
CIRCLE
5
228
100
AcDbEntity
8
0
100
AcDbCircle
10
85.354154793780111
20
-27.30501788874836
30
0
40
1.5000000000000013
210
0
220
0
230
1
0
CIRCLE
5
229
100
AcDbEntity
8
0
100
AcDbCircle
10
85.354167978557911
20
-34.035999999993237
30
0
40
1.4999999999999996
210
0
220
0
230
1
0
CIRCLE
5
230
100
AcDbEntity
8
0
100
AcDbCircle
10
88.695262443015665
20
-23.939423799993055
30
0
40
1.4999999999999991
210
0
220
0
230
1
0
CIRCLE
5
231
100
AcDbEntity
8
0
100
AcDbCircle
10
88.69524925823788
20
-20.574017888748244
30
0
40
1.5000000000000013
210
0
220
0
230
1
0
CIRCLE
5
232
100
AcDbEntity
8
0
100
AcDbCircle
10
88.69524925823788
20
-30.670009888748272
30
0
40
1.5000000000000013
210
0
220
0
230
1
0
CIRCLE
5
233
100
AcDbEntity
8
0
100
AcDbCircle
10
88.69524925823788
20
-27.30501788874836
30
0
40
1.5000000000000013
210
0
220
0
230
1
0
CIRCLE
5
234
100
AcDbEntity
8
0
100
AcDbCircle
10
88.695262443015665
20
-34.035999999993237
30
0
40
1.4999999999999996
210
0
220
0
230
1
0
CIRCLE
5
235
100
AcDbEntity
8
0
100
AcDbCircle
10
92.036356907473419
20
-23.939423799993055
30
0
40
1.4999999999999991
210
0
220
0
230
1
0
CIRCLE
5
236
100
AcDbEntity
8
0
100
AcDbCircle
10
92.036343722695634
20
-20.574017888748244
30
0
40
1.5000000000000013
210
0
220
0
230
1
0
CIRCLE
5
237
100
AcDbEntity
8
0
100
AcDbCircle
10
92.036343722695634
20
-30.670009888748272
30
0
40
1.5000000000000013
210
0
220
0
230
1
0
CIRCLE
5
238
100
AcDbEntity
8
0
100
AcDbCircle
10
92.036343722695634
20
-27.30501788874836
30
0
40
1.5000000000000013
210
0
220
0
230
1
0
CIRCLE
5
239
100
AcDbEntity
8
0
100
AcDbCircle
10
92.036356907473419
20
-34.035999999993237
30
0
40
1.4999999999999996
210
0
220
0
230
1
0
CIRCLE
5
240
100
AcDbEntity
8
0
100
AcDbCircle
10
95.377451371931187
20
-23.939423799993055
30
0
40
1.4999999999999991
210
0
220
0
230
1
0
CIRCLE
5
241
100
AcDbEntity
8
0
100
AcDbCircle
10
95.377438187153402
20
-20.574017888748244
30
0
40
1.5000000000000013
210
0
220
0
230
1
0
CIRCLE
5
242
100
AcDbEntity
8
0
100
AcDbCircle
10
95.377438187153402
20
-30.670009888748272
30
0
40
1.5000000000000013
210
0
220
0
230
1
0
CIRCLE
5
243
100
AcDbEntity
8
0
100
AcDbCircle
10
95.377438187153402
20
-27.30501788874836
30
0
40
1.5000000000000013
210
0
220
0
230
1
0
CIRCLE
5
244
100
AcDbEntity
8
0
100
AcDbCircle
10
95.377451371931187
20
-34.035999999993237
30
0
40
1.4999999999999996
210
0
220
0
230
1
0
ENDSEC
0
SECTION
2
OBJECTS
0
DICTIONARY
5
C
100
AcDbDictionary
3
ACAD_GROUP
350
D
3
ACAD_MLINESTYLE
350
17
0
DICTIONARY
5
D
100
AcDbDictionary
0
DICTIONARY
5
1A
330
C
100
AcDbDictionary
0
DICTIONARY
5
17
100
AcDbDictionary
0
ENDSEC
0
EOF
